<svg width="512" height="512" viewBox="0 0 512 512" fill="none" xmlns="http://www.w3.org/2000/svg">
<path d="M264 480C202.47 480 143.46 455.557 99.9512 412.049C56.4428 368.54 32 309.53 32 248C32 154 86 69.72 169.61 33.33C172.557 32.0457 175.822 31.6788 178.98 32.277C182.138 32.8752 185.043 34.4109 187.316 36.6838C189.589 38.9567 191.125 41.8616 191.723 45.0198C192.321 48.1781 191.954 51.4433 190.67 54.39C181.07 76.43 176 104.66 176 136C176 246.28 265.72 336 376 336C407.34 336 435.57 330.93 457.61 321.33C460.557 320.046 463.822 319.679 466.98 320.277C470.138 320.875 473.043 322.411 475.316 324.684C477.589 326.957 479.125 329.862 479.723 333.02C480.321 336.178 479.954 339.443 478.67 342.39C442.28 426 358 480 264 480Z" fill="white"/>
</svg>
